<?xml version="1.0" encoding="utf-8"?>
<!-- Generator: Adobe Illustrator 26.2.0, SVG Export Plug-In . SVG Version: 6.00 Build 0)  -->
<svg version="1.1" id="Слой_1" xmlns="http://www.w3.org/2000/svg" xmlns:xlink="http://www.w3.org/1999/xlink" x="0px" y="0px"
	 viewBox="0 0 500 513" style="enable-background:new 0 0 500 513;" xml:space="preserve">
<style type="text/css">
	.st0{fill-rule:evenodd;clip-rule:evenodd;}
</style>
<path class="st0" d="M17,72.1C4,97.6,4,130.9,4,197.7v112.4c0,66.7,0,100.1,13,125.6c11.4,22.4,29.7,40.7,52.1,52.1
	c25.5,13,58.9,13,125.6,13h112.4c66.7,0,100.1,0,125.6-13c22.4-11.4,40.7-29.7,52.1-52.1c13-25.5,13-58.9,13-125.6V197.7
	c0-66.7,0-100.1-13-125.6c-11.4-22.4-29.7-40.7-52.1-52.1C407.2,7,373.8,7,307.1,7H194.7C128,7,94.6,7,69.1,20
	C46.7,31.4,28.4,49.6,17,72.1z M145.3,184.9c-0.2-0.1-0.3-0.3-0.5-0.4v3.5c0.1,0.2,0.2,0.4,0.2,0.6c0.2,0.5,0.4,0.9,0.4,1.4
	c0,2.1,0,4.2,0,6.2c0,4.8,0,9.6,0,14.4l0,5.4l0,0l0,0.9c0.8,5.5,4.2,9.2,8.5,12.2c10.3,7.3,20.5,14.6,30.8,22l0.1,0
	c15,10.7,30,21.4,45,32c6.1,4.3,12.3,8.5,18.6,12.6c6.1,4,12.7,5.1,19,0.8c19.2-13.4,38.4-26.9,57.3-40.8
	c11.3-8.4,18.4-20,19.5-34.1c0.4-4.6,0.5-9.1,0.5-13.6c0-3.7-0.1-7.4-0.1-10.9c-0.1-3.2-0.1-6.3-0.1-9.3c-0.2,0.7-0.3,1.6-0.5,2.5v0
	c-0.4,2.4-0.9,5.4-1.9,8.3c-3.7,11.4-10.9,20.5-20.7,27.4c-17.3,12.3-34.6,24.5-51.9,36.7c-7.6,5.3-13.7,5.7-21.4,0.3
	c-31.8-22.3-63.5-44.8-95.2-67.2c-3.5-2.4-6.3-5.5-6.8-10.1C146,185.5,145.6,185.2,145.3,184.9z M345.4,257.3c0,0.4,0,0.7,0,1.1
	l0-0.1c-0.1,3.8-0.2,7.6-0.2,11.4c-0.1,8.6-0.3,17.3-1.3,25.8c-1.6,13.2-8.8,23.9-19.4,31.7c-17.6,13-35.5,25.5-53.4,38l-3.4,2.4
	c-6.7,4.7-13.5,3.3-19.8-1c-8.3-5.5-16.5-11.1-24.7-16.9c-16.6-11.8-33.1-23.6-49.6-35.5c-6.8-4.9-13.6-9.7-20.4-14.6
	c-4.2-3-7.2-6.7-7.8-12l0-1l0,0l0-5c0-6.2,0-12.5,0-18.7l0-2.6c0-0.4-0.2-0.8-0.4-1.2c-0.1-0.2-0.2-0.4-0.2-0.5l0-2.9
	c0.1,0.1,0.3,0.2,0.4,0.2c0.3,0.2,0.7,0.4,0.7,0.6c0.6,5.1,4,8.1,7.7,10.9c3.6,2.6,7.1,5.2,10.7,7.8c10.9,8,21.9,16,33,23.8
	c12.5,8.9,25.2,17.5,37.9,26.2l0,0c3.8,2.6,7.5,5.1,11.3,7.7c9.4,6.5,14.6,6.5,24-0.1c8.8-6.2,17.6-12.4,26.4-18.6l0,0
	c7.8-5.5,15.7-11.1,23.5-16.6c9.9-7,17.4-15.8,21.3-27.3c0.7-2.1,1.2-4.2,1.7-6.3C344,262,344.5,259.6,345.4,257.3z M191.7,181.5
	c-0.1,0.2-0.3,0.4-0.5,0.6c0.2,0.2,0.4,0.4,0.5,0.6c0.3,0.3,0.5,0.6,0.8,0.8c0.7,0.5,1.3,0.9,2,1.4c6.4,4.4,12.8,8.8,19.2,13.1
	c0.6,0.4,2.1,0.3,2.8-0.2c2.8-1.6,5.5-3.3,8.2-5c0.9-0.6,1.9-1.2,2.8-1.7c22.9-14.2,45.8-14.4,68.7,0c1.7,1.1,3.4,2.2,5.1,3.4
	c0.5,0.4,1.1,0.7,1.6,1.1c1.6,1.1,2.9,1,4.1-0.7c5.5-7.5,4.8-18.6-2.1-24.9c-4.3-3.9-8.9-7.4-13.7-10.6
	c-9.9-6.6-20.9-10.4-32.9-10.5c-12.9,0-24.8,4-35.5,10.9c-7.3,4.7-14.5,9.8-21.6,14.8c-2.9,2.1-5.8,4.2-8.8,6.2
	C192.1,180.9,191.9,181.2,191.7,181.5z"/>
</svg>
